<svg id="Layer_1" data-name="Layer 1" xmlns="http://www.w3.org/2000/svg" width="60" height="30" viewBox="0 0 60 30"><title>Artboard 1</title><g id="Page-1"><g id="back"><g id="Group"><path id="Combined-Shape" d="M13.1,14H21a1,1,0,0,1,0,2H13.1l3.6,3.3a1,1,0,0,1,0,1.4,1.1,1.1,0,0,1-1.5,0L9,15l6.2-5.7a1.1,1.1,0,0,1,1.5,0,1,1,0,0,1,0,1.4Z" fill="#a5a1c7" fill-rule="evenodd"/><path id="Combined-Shape-2" data-name="Combined-Shape" d="M43.1,14H51a1,1,0,0,1,0,2H43.1l3.6,3.3a1,1,0,0,1,0,1.4,1.1,1.1,0,0,1-1.5,0L39,15l6.2-5.7a1.1,1.1,0,0,1,1.5,0,1,1,0,0,1,0,1.4Z" fill="#084406" fill-rule="evenodd"/></g></g></g></svg>