<svg xmlns="http://www.w3.org/2000/svg"><symbol id="back-button" viewBox="0 0 13.6 27.2"><path fill="none" stroke="#000" stroke-linecap="round" stroke-width="3" d="M11.7 1.5L2.5 13.4l9.2 12.2"/></symbol><symbol id="nav-close" viewBox="0 0 35 31.5"><path fill="none" stroke="#000" stroke-linecap="round" stroke-width="5" d="M4 3.1l28 25.2m0-25.2L4 28.3"/></symbol><symbol id="search" viewBox="0 0 23 25.2"><g fill="none" stroke="#000"><path stroke-linecap="round" stroke-width="2.31" d="M14.2 15.6l7.4 8.3"/><circle cx="9" cy="9.1" r="7.9" stroke-miterlimit="10" stroke-width="2"/></g></symbol><symbol id="cart-with-items" viewBox="0 0 23.9 21"><path d="M21.1 21H2.9A2.8 2.8 0 0 1 0 18.2a1.7 1.7 0 0 1 .1-.7l2.3-9.3a2.8 2.8 0 0 1 2.7-2.1H19a2.8 2.8 0 0 1 2.7 2.2l2.1 9.3a2.8 2.8 0 0 1-2.1 3.4c-.2 0-.4.1-.6 0z"/><path fill="none" stroke="#000" stroke-miterlimit="10" stroke-width="1.82" d="M7.6 6.1c0-6.6 8.9-7.2 9.3 0"/><circle cx="11.8" cy="13.8" r="4.2" fill="#fff"/><path d="M11.8 11.9H11l.2-.5h1.1v4.8h-.5z" style="isolation:isolate"/></symbol><symbol id="shopping-bag" viewBox="0 0 24.1 21.3"><path d="M21.3 21.3H2.9A2.9 2.9 0 0 1 0 18.4a1.3 1.3 0 0 1 .1-.6l2.3-9.4a2.9 2.9 0 0 1 2.8-2.2h13.9a2.9 2.9 0 0 1 2.8 2.3l2.1 9.3a2.7 2.7 0 0 1-2.1 3.4z"/><path fill="none" stroke="#000" stroke-miterlimit="10" stroke-width="1.84" d="M7.7 6.2c0-6.6 8.9-7.3 9.4 0"/></symbol><symbol id="hamburger-nav" viewBox="0 0 48 29"><path fill="none" stroke="#000" stroke-linecap="round" stroke-width="5" d="M2.5 2.5h43m-43 12h43m-43 12h43"/></symbol></svg>