<svg xmlns="http://www.w3.org/2000/svg"><symbol id="cart-with-items" viewBox="0 0 23.9 21"><path d="M21.1 21H2.9A2.8 2.8 0 0 1 0 18.2a1.7 1.7 0 0 1 .1-.7l2.3-9.3a2.8 2.8 0 0 1 2.7-2.1H19a2.8 2.8 0 0 1 2.7 2.2l2.1 9.3a2.8 2.8 0 0 1-2.1 3.4c-.2 0-.4.1-.6 0z"/><circle cx="11.8" cy="13.8" r="4.2" fill="#fff"/><path d="M11.8 11.9H11l.2-.5h1.1v4.8h-.5z" style="isolation:isolate"/><path fill="none" d="M7.3 6.6v.2a4.7 4.7 0 0 0 4.5 4.9 4.9 4.9 0 0 0 4.6-4.9.3.3 0 0 1-.1-.2H7.1v.2zm-.2-.2h9.4c-.5-7-9.2-6.4-9.4 0z"/><path d="M11.9.4a6 6 0 0 0-5.9 6h1.1c.2-6.4 8.9-7 9.4.1h1.2A6.1 6.1 0 0 0 11.9.4z"/></symbol><symbol id="search" viewBox="0 0 20.2 22.7"><rect width="2.4" height="11.61" x="14.7" y="12.1" rx="1.2" transform="rotate(-41.4 15.766 17.903)"/><path d="M7.9.3A7.9 7.9 0 0 0 0 8.2a7.9 7.9 0 0 0 7.9 7.9 7.9 7.9 0 0 0 7.9-7.9A7.9 7.9 0 0 0 7.9.3zm0 14a6.1 6.1 0 0 1 0-12.2 6.1 6.1 0 0 1 6.2 6.1 6.1 6.1 0 0 1-6.2 6.1z"/></symbol><symbol id="shopping-bag" viewBox="0 0 24.1 21.3"><path d="M21.3 21.3H2.9A2.9 2.9 0 0 1 0 18.4a1.3 1.3 0 0 1 .1-.6l2.3-9.4a2.9 2.9 0 0 1 2.8-2.2h13.9a2.9 2.9 0 0 1 2.8 2.3l2.1 9.3a2.7 2.7 0 0 1-2.1 3.4z"/><path fill="none" d="M7.5 6.6v.2a4.7 4.7 0 0 0 4.5 4.9 4.8 4.8 0 0 0 4.6-4.9v-.2H7.4v.2zm-.1-.2h9.3c-.5-7-9.2-6.4-9.3 0z"/><path d="M12.1.4a6.1 6.1 0 0 0-5.9 6h1.2c.1-6.4 8.8-7 9.3.1h1.2A6.1 6.1 0 0 0 12.1.4z"/></symbol><symbol id="instagram" viewBox="0 0 19.9 19.9"><path d="M12.6 4.6H7.3a2.4 2.4 0 0 0-2.7 2.7 15.7 15.7 0 0 0-.1 2.7 15 15 0 0 0 .1 2.6 2.5 2.5 0 0 0 2.7 2.8h5.3a2.6 2.6 0 0 0 2.8-2.8V7.3a2.5 2.5 0 0 0-2.8-2.7zM10 13.4A3.4 3.4 0 0 1 6.6 10 3.4 3.4 0 0 1 10 6.6a3.4 3.4 0 0 1 3.4 3.4 3.5 3.5 0 0 1-3.4 3.4zm3.5-6.2a.8.8 0 0 1-.8-.8.8.8 0 1 1 1.6 0 .8.8 0 0 1-.8.8zM12.2 10a2.2 2.2 0 0 1-2.2 2.2 2.3 2.3 0 1 1 2.2-2.2zm3.6-10H4.2A4.2 4.2 0 0 0 0 4.2v11.6a4.1 4.1 0 0 0 4.2 4.1h11.6a4.1 4.1 0 0 0 4.1-4.1V4.2A4.1 4.1 0 0 0 15.8 0zm.8 12.7a3.7 3.7 0 0 1-3.9 3.9H7.2c-2.4-.1-3.7-1.5-3.8-3.9a15.7 15.7 0 0 1-.1-2.7 17.2 17.2 0 0 1 .1-2.8 3.6 3.6 0 0 1 3.8-3.8h5.5c2.4.1 3.8 1.4 3.9 3.8v5.5z"/></symbol><symbol id="facebook" viewBox="0 0 19.7 19.7"><path d="M15.6 0H4.1A4.1 4.1 0 0 0 0 4.1v11.5a4.1 4.1 0 0 0 4.1 4.1h11.5a4.2 4.2 0 0 0 4.1-4.1V4.1A4.1 4.1 0 0 0 15.6 0zm-2.5 5.7h-1.6c-.5 0-.9.2-.9.8v.9h2.5l-.2 2.4h-2.3v6.6H8.2V9.8H6.6V7.4h1.6V5.8c0-1.7.9-2.5 2.8-2.5h2.1z"/></symbol><symbol id="twitter" viewBox="0 0 19.8 19.8"><path d="M15.7 0H4.1A4.1 4.1 0 0 0 0 4.1v11.6a4.1 4.1 0 0 0 4.1 4.1h11.6a4.2 4.2 0 0 0 4.1-4.1V4.1A4.1 4.1 0 0 0 15.7 0zm-.1 7.6a7.8 7.8 0 0 1-7.7 8.1 8.3 8.3 0 0 1-4.2-1.2 5.8 5.8 0 0 0 4-1.2 2.6 2.6 0 0 1-2.5-1.8h1.2a2.8 2.8 0 0 1-2.2-2.8l1.3.4a2.8 2.8 0 0 1-.9-3.7 7.7 7.7 0 0 0 5.6 2.9 2.8 2.8 0 0 1 2.6-3.4 2.9 2.9 0 0 1 2 .9 3.6 3.6 0 0 0 1.7-.7 2.3 2.3 0 0 1-1.2 1.5 4.2 4.2 0 0 0 1.6-.4 5.8 5.8 0 0 1-1.3 1.4z"/></symbol></svg>