<svg id="Layer_1" data-name="Layer 1" xmlns="http://www.w3.org/2000/svg" width="252.8" height="289.5" viewBox="0 0 252.8 289.5"><title>logo</title><ellipse cx="111.9" cy="116.8" rx="90" ry="90.3" fill="none" stroke="#000" stroke-miterlimit="10" stroke-width="10.31"/><ellipse cx="111.9" cy="116.8" rx="69.7" ry="69.9" fill="none" stroke="#000" stroke-miterlimit="10" stroke-width="5.16"/><line x1="111.9" y1="186.6" x2="111.9" y2="46.9" fill="none" stroke="#000" stroke-miterlimit="10" stroke-width="5.16"/><line x1="111.9" y1="89.8" x2="153.6" y2="60.1" fill="none" stroke="#000" stroke-miterlimit="10" stroke-width="5.16"/><line x1="111.9" y1="131.6" x2="171.7" y2="83.7" fill="none" stroke="#000" stroke-miterlimit="10" stroke-width="5.16"/><line x1="111.9" y1="173.4" x2="182.3" y2="114.9" fill="none" stroke="#000" stroke-miterlimit="10" stroke-width="5.16"/><line x1="112.7" y1="89.8" x2="71" y2="60.1" fill="none" stroke="#000" stroke-miterlimit="10" stroke-width="5.16"/><line x1="112.7" y1="131.6" x2="52.8" y2="83.7" fill="none" stroke="#000" stroke-miterlimit="10" stroke-width="5.16"/><line x1="112.7" y1="173.4" x2="42.2" y2="114.9" fill="none" stroke="#000" stroke-miterlimit="10" stroke-width="5.16"/><path d="M243.2,105.2l-34.7,6.4a10.5,10.5,0,0,1-12.3-8.4l-.2-.9A10.6,10.6,0,0,1,204.5,90l34.7-6.4A10.4,10.4,0,0,1,251.4,92l.2.9A10.5,10.5,0,0,1,243.2,105.2Z"/><path d="M43.4,236.9v-1.8h3.8v8H43.4a6.6,6.6,0,0,0-2.5-3.2,6.7,6.7,0,0,0-7.2-.3,5.8,5.8,0,0,0-2.3,2.6,7.9,7.9,0,0,0-.9,3.8,9,9,0,0,0,1.8,5.9,6.2,6.2,0,0,0,4.9,2.1,5.1,5.1,0,0,0,3.4-1,5.2,5.2,0,0,0,1.9-2.8h-4v-3.9H49.2a12.9,12.9,0,0,1-1.5,6.4,9.1,9.1,0,0,1-4.2,4,13.4,13.4,0,0,1-6.6,1.4,14.4,14.4,0,0,1-6.7-1.4,10.3,10.3,0,0,1-4.5-4,12.8,12.8,0,0,1-1.5-6.3,11.3,11.3,0,0,1,1.6-6.1,10.6,10.6,0,0,1,4.3-4.1,12.6,12.6,0,0,1,6.2-1.5C39.3,234.7,41.7,235.4,43.4,236.9Z"/><path d="M65.3,241.8v4.8a9.3,9.3,0,0,0-3.3.6,3.7,3.7,0,0,0-1.9,1.8,7.4,7.4,0,0,0-.7,3.6v1.6h3.1v3.7H51.4v-3.7h2.9v-8.5H51.6V242H59v4a5.5,5.5,0,0,1,2-3,6,6,0,0,1,3.8-1.2Z"/><path d="M83.6,251H71.8a4.5,4.5,0,0,0,1.2,2.9,3.9,3.9,0,0,0,2.8,1,5.2,5.2,0,0,0,3.7-1.8l3.9,1.2a9.1,9.1,0,0,1-3.2,3,10.8,10.8,0,0,1-4.6.9,11.1,11.1,0,0,1-4.6-.9,7.2,7.2,0,0,1-3.1-2.9,7.3,7.3,0,0,1-1.1-4.2,9.3,9.3,0,0,1,1.1-4.4,8.7,8.7,0,0,1,3.2-3.1,8.8,8.8,0,0,1,4.2-1.1,7.8,7.8,0,0,1,4.4,1.2,6.8,6.8,0,0,1,2.8,3.2A11.5,11.5,0,0,1,83.6,251Zm-8.5-6a2.9,2.9,0,0,0-2.2.8,3.8,3.8,0,0,0-1,2.4h6.6a3.7,3.7,0,0,0-1.2-2.3A2.9,2.9,0,0,0,75.1,245Z"/><path d="M102.4,251H90.6a4.5,4.5,0,0,0,1.2,2.9,3.9,3.9,0,0,0,2.8,1,5.2,5.2,0,0,0,3.7-1.8l3.9,1.2a9.1,9.1,0,0,1-3.2,3,10.6,10.6,0,0,1-4.5.9,11.6,11.6,0,0,1-4.7-.9,7.2,7.2,0,0,1-3.1-2.9,8.2,8.2,0,0,1-1.1-4.2,9.3,9.3,0,0,1,1.1-4.4,8.7,8.7,0,0,1,3.2-3.1,8.8,8.8,0,0,1,4.2-1.1,7.8,7.8,0,0,1,4.4,1.2,7.5,7.5,0,0,1,2.9,3.2A13.1,13.1,0,0,1,102.4,251Zm-8.5-6a2.9,2.9,0,0,0-2.2.8,3.8,3.8,0,0,0-1,2.4h6.6a3.7,3.7,0,0,0-1.2-2.3A2.9,2.9,0,0,0,93.9,245Z"/><path d="M120.9,247.7v6.5h2.4v3.7h-7.5v-9.8a3.5,3.5,0,0,0-.3-1.6,1.3,1.3,0,0,0-1.1-.5,4.8,4.8,0,0,0-2.9,1.1v7.1h2.4v3.7H104v-3.7h2.4v-8.5H104V242h7.5v1.5a7.1,7.1,0,0,1,4.6-1.7,4.3,4.3,0,0,1,3.6,1.5A7,7,0,0,1,120.9,247.7Z"/><path d="M142.3,238.9v18.7c0,4.9-2.3,7.3-6.7,7.3a17,17,0,0,1-3.5-.4v-4.2l1.8.3c.9,0,1.6-.2,1.9-.8a4,4,0,0,0,.6-2.5V238.9H133v-3.8h12.4v3.8Z"/><path d="M160.9,248.3v5.9h2.6v3.7h-7.6v-1.3a7.7,7.7,0,0,1-4.3,1.5,6,6,0,0,1-4.2-1.3,4.4,4.4,0,0,1-1.6-3.7,4.5,4.5,0,0,1,1.8-3.8,6.7,6.7,0,0,1,4.6-1.5l1.8.2a9.7,9.7,0,0,1,1.9.8v-1.3a2.4,2.4,0,0,0-.8-1.9,2.9,2.9,0,0,0-2.2-.8,4.5,4.5,0,0,0-3,1.3l-4-.7c1.2-2.5,3.8-3.8,7.6-3.8s4.6.6,5.7,1.6A7,7,0,0,1,160.9,248.3Zm-8.2,6.6a5.1,5.1,0,0,0,3.2-1.6v-1.4a5.8,5.8,0,0,0-3-1.1,2.9,2.9,0,0,0-1.7.5,2,2,0,0,0-.5,1.5C150.7,254.2,151.3,254.9,152.7,254.9Z"/><path d="M170.2,245.7l2.6,7.2,2.8-7.2h-2V242H182v3.7h-2.3l-5.2,12.4h-4.3l-5.3-12.4h-2.3V242h9.6v3.7Z"/><path d="M198.1,248.3v5.9h2.5v3.7H193v-1.3a7.2,7.2,0,0,1-4.3,1.5,6.4,6.4,0,0,1-4.2-1.3,5.2,5.2,0,0,1,.2-7.5,7.2,7.2,0,0,1,4.7-1.5l1.8.2,1.8.8v-1.3a2.4,2.4,0,0,0-.7-1.9,3.2,3.2,0,0,0-2.3-.8,4.3,4.3,0,0,0-2.9,1.3l-4.1-.7c1.3-2.5,3.8-3.8,7.7-3.8s4.5.6,5.7,1.6A7,7,0,0,1,198.1,248.3Zm-8.2,6.6a4.9,4.9,0,0,0,3.1-1.6v-1.4a5.3,5.3,0,0,0-2.9-1.1,2.6,2.6,0,0,0-1.7.5,2,2,0,0,0-.6,1.5A1.9,1.9,0,0,0,189.9,254.9Z"/><path d="M62.2,273.5v1.9a1.1,1.1,0,0,0-.9-.4c-1.1,0-1.6,1.1-1.6,3.4s.5,3.7,1.5,3.7a2.1,2.1,0,0,0,1-.4v1.8a4.2,4.2,0,0,1-1.5.4c-2.1,0-3.1-1.8-3.1-5.3a9.1,9.1,0,0,1,.7-4.2,2.6,2.6,0,0,1,2.4-1.3A2.8,2.8,0,0,1,62.2,273.5Z"/><path d="M71,278.6c0,3.5-1.1,5.3-3.2,5.3s-3.3-1.8-3.3-5.4,1.1-5.4,3.2-5.4a3.3,3.3,0,0,1,1.5.3,2.4,2.4,0,0,1,1,1,4.3,4.3,0,0,1,.6,1.7A9.4,9.4,0,0,1,71,278.6Zm-2-.1a16,16,0,0,0-.2-2.8c-.2-.6-.5-.9-1-.9s-.8.3-1,.9a9.5,9.5,0,0,0-.2,2.8,10.2,10.2,0,0,0,.2,2.8,1,1,0,0,0,2,0A15.2,15.2,0,0,0,69,278.5Z"/><path d="M73.1,273.3h1v-3.7a4.9,4.9,0,0,1,.5-2.5,2,2,0,0,1,1.8-.7l1.3.3v2l-.8-.3a.9.9,0,0,0-.7.3,2.5,2.5,0,0,0-.2,1v3.6h1.6v1.5H76v8.9H74.1v-8.9h-1Z"/><path d="M79.6,273.3h1v-3.7a4.9,4.9,0,0,1,.5-2.5,2.1,2.1,0,0,1,1.8-.7l1.3.3v2a1.3,1.3,0,0,0-.8-.3.9.9,0,0,0-.7.3,2.5,2.5,0,0,0-.2,1v3.6h1.6v1.5H82.5v8.9H80.6v-8.9h-1Z"/><path d="M90.5,280.2h1.8c-.2,2.4-1.2,3.7-3,3.7a3.3,3.3,0,0,1-1.5-.3,3.2,3.2,0,0,1-1-1,10.7,10.7,0,0,1-.6-1.7,16.3,16.3,0,0,1-.1-2.4,8.9,8.9,0,0,1,.7-4.1,2.5,2.5,0,0,1,2.4-1.3c2.1,0,3.1,1.8,3.1,5.5v.3H87.9c0,2.2.5,3.3,1.4,3.3S90.5,281.5,90.5,280.2Zm-.1-2.7a7.1,7.1,0,0,0-.4-2.2.9.9,0,0,0-.8-.6,1,1,0,0,0-.9.6,7.1,7.1,0,0,0-.4,2.2Z"/><path d="M99.1,280.2h1.8c-.2,2.4-1.2,3.7-3,3.7a3.3,3.3,0,0,1-1.5-.3,3.2,3.2,0,0,1-1-1,5.8,5.8,0,0,1-.5-1.7,8.2,8.2,0,0,1-.2-2.4,7.6,7.6,0,0,1,.8-4.1,2.5,2.5,0,0,1,2.3-1.3c2.1,0,3.2,1.8,3.2,5.5v.3H96.6c0,2.2.4,3.3,1.3,3.3S99.1,281.5,99.1,280.2Zm-.1-2.7a7.1,7.1,0,0,0-.4-2.2.8.8,0,0,0-.8-.6,1,1,0,0,0-.9.6,8.1,8.1,0,0,0-.3,2.2Z"/><path d="M109,273.3h1.9v1.3a3.2,3.2,0,0,1,1-1.2,3.3,3.3,0,0,1,1.3-.4v2.1h-.4a1.8,1.8,0,0,0-1.5.6,3.4,3.4,0,0,0-.4,1.8v6.3H109Z"/><path d="M121.7,278.6c0,3.5-1.1,5.3-3.2,5.3s-3.3-1.8-3.3-5.4,1.1-5.4,3.2-5.4a3.3,3.3,0,0,1,1.5.3,2.4,2.4,0,0,1,1,1,4.3,4.3,0,0,1,.6,1.7A9.4,9.4,0,0,1,121.7,278.6Zm-2-.1a16,16,0,0,0-.2-2.8c-.2-.6-.5-.9-1-.9s-.8.3-1,.9a9.5,9.5,0,0,0-.2,2.8,10.2,10.2,0,0,0,.2,2.8,1,1,0,0,0,2,0A15.2,15.2,0,0,0,119.7,278.5Z"/><path d="M130.5,273.3v10.4h-1.9v-1.3a6.2,6.2,0,0,1-.9,1.2,1.5,1.5,0,0,1-1,.3,2,2,0,0,1-1.9-1.4,10.1,10.1,0,0,1-.6-4.1,9.8,9.8,0,0,1,.6-4,1.9,1.9,0,0,1,1.9-1.3,2.3,2.3,0,0,1,1.9,1.4v-1.2Zm-4.4,5.1a9.3,9.3,0,0,0,.3,2.9c.2.6.5.8,1,.8s.7-.2.9-.8a13.2,13.2,0,0,0,0-5.6q-.3-.9-.9-.9c-.5,0-.8.3-1,.9A8.2,8.2,0,0,0,126.1,278.4Z"/><path d="M137.7,273.5v1.8a2,2,0,0,0-1.5-.5h-.4a.5.5,0,0,0-.4.2l-.3.4a.6.6,0,0,0-.1.4c0,.5.5,1.1,1.4,1.8l.9.8.5.7a2.5,2.5,0,0,1,.4,1.6,3.1,3.1,0,0,1-.8,2.2,2.8,2.8,0,0,1-2.2.9,4.1,4.1,0,0,1-1.7-.5v-1.9a2.9,2.9,0,0,0,1.6.6c.9,0,1.3-.4,1.3-1.3a1.1,1.1,0,0,0-.2-.8l-.3-.4-.6-.5a6.7,6.7,0,0,1-1.7-1.6,2.7,2.7,0,0,1-.4-1.6A2.7,2.7,0,0,1,136,273,3.4,3.4,0,0,1,137.7,273.5Z"/><path d="M141.1,270.4H143v2.9h1.1v1.5H143v8.9h-1.9v-8.9h-1v-1.5h1Z"/><path d="M150.5,280.2h1.8c-.2,2.4-1.2,3.7-3,3.7a3.3,3.3,0,0,1-1.5-.3,3.2,3.2,0,0,1-1-1,5.8,5.8,0,0,1-.5-1.7,8.2,8.2,0,0,1-.2-2.4,8.9,8.9,0,0,1,.7-4.1,2.7,2.7,0,0,1,2.4-1.3c2.1,0,3.2,1.8,3.2,5.5v.3H148c0,2.2.4,3.3,1.3,3.3S150.5,281.5,150.5,280.2Zm-.1-2.7a7.1,7.1,0,0,0-.4-2.2c-.2-.4-.4-.6-.8-.6a1,1,0,0,0-.9.6,8.1,8.1,0,0,0-.3,2.2Z"/><path d="M155.1,273.3H157v1.3a3.2,3.2,0,0,1,1-1.2,3.3,3.3,0,0,1,1.3-.4v2.1h-.4a1.8,1.8,0,0,0-1.5.6,3.4,3.4,0,0,0-.4,1.8v6.3h-1.9Z"/><path d="M165.9,273.5v1.8a1.9,1.9,0,0,0-1.4-.5H164a.5.5,0,0,0-.4.2l-.3.4c0,.1-.1.3-.1.4s.5,1.1,1.4,1.8l.9.8.5.7a2.5,2.5,0,0,1,.4,1.6,2.7,2.7,0,0,1-.8,2.2,2.6,2.6,0,0,1-2.1.9,3.4,3.4,0,0,1-1.7-.5v-1.9a2.4,2.4,0,0,0,1.5.6c.9,0,1.4-.4,1.4-1.3a1.1,1.1,0,0,0-.3-.8l-.3-.4-.6-.5a9,9,0,0,1-1.7-1.6,2.7,2.7,0,0,1-.4-1.6,3.2,3.2,0,0,1,.8-2.1,2.8,2.8,0,0,1,2-.8A3.4,3.4,0,0,1,165.9,273.5Z"/><path d="M221.2,124c-3.7,56.9-50.9,101.9-108.5,101.9C52.6,225.9,3.9,177,3.9,116.8S52.6,7.7,112.7,7.7A108.6,108.6,0,0,1,212.8,74.1" fill="none" stroke="#000" stroke-linecap="round" stroke-miterlimit="10" stroke-width="5.83"/></svg>