<svg id="Layer_1" data-name="Layer 1" xmlns="http://www.w3.org/2000/svg" width="14.2" height="15.8" viewBox="0 0 14.2 15.8"><title>logo-16</title><ellipse cx="6.3" cy="6.4" rx="5.1" ry="5.1" fill="none" stroke="#000" stroke-miterlimit="10" stroke-width="0.58"/><ellipse cx="6.3" cy="6.4" rx="3.9" ry="4" fill="none" stroke="#000" stroke-miterlimit="10" stroke-width="0.29"/><line x1="6.3" y1="10.3" x2="6.3" y2="2.4" fill="none" stroke="#000" stroke-miterlimit="10" stroke-width="0.29"/><line x1="6.3" y1="4.8" x2="8.6" y2="3.1" fill="none" stroke="#000" stroke-miterlimit="10" stroke-width="0.29"/><line x1="6.3" y1="7.2" x2="9.7" y2="4.5" fill="none" stroke="#000" stroke-miterlimit="10" stroke-width="0.29"/><line x1="6.3" y1="9.6" x2="10.3" y2="6.2" fill="none" stroke="#000" stroke-miterlimit="10" stroke-width="0.29"/><line x1="6.3" y1="4.8" x2="4" y2="3.1" fill="none" stroke="#000" stroke-miterlimit="10" stroke-width="0.29"/><line x1="6.3" y1="7.2" x2="2.9" y2="4.5" fill="none" stroke="#000" stroke-miterlimit="10" stroke-width="0.29"/><line x1="6.3" y1="9.6" x2="2.3" y2="6.2" fill="none" stroke="#000" stroke-miterlimit="10" stroke-width="0.29"/><path d="M13.7,5.7l-1.9.4c-.4,0-.7-.2-.7-.5H11a.8.8,0,0,1,.5-.7l2-.3c.3-.1.6.1.7.5h0C14.3,5.3,14,5.6,13.7,5.7Z"/><path d="M2.4,13.2h.2v.4H2.4v-.2H1.9l-.2.2v.2a.4.4,0,0,0,.1.3h.4l.2-.2H2.1v-.2h.6a.6.6,0,0,1-.1.4l-.2.2H1.7l-.3-.2a.6.6,0,0,1-.1-.4.4.4,0,0,1,.1-.3l.2-.3H2Z"/><path d="M3.6,13.4v.3a.1.1,0,0,0-.1.1H3.3v.2h.2v.3H2.9v-.3H3v-.4H2.9v-.2h.4v0Z"/><path d="M4.7,14H3.8a.4.4,0,0,1-.1-.3v-.2l.2-.2h.5v.2A.4.4,0,0,1,4.7,14Zm-.5-.4H4.1c-.1,0-.1,0-.1.1h.4a.1.1,0,0,0-.1-.1Z"/><path d="M5.7,14H4.9a.4.4,0,0,1-.1-.3c0-.1,0-.2.1-.2v-.2h.5l.2.2Zm-.4-.4h.2a.1.1,0,0,1-.1-.1Z"/><path d="M6.8,13.8v.3h.1v.3H6.5v-.6H6.3v.4h.1v.3H5.8v-.3H6v-.4H5.8v-.2h.9A.4.4,0,0,1,6.8,13.8Z"/><path d="M8,13.3v1c0,.3-.1.5-.4.5H7.4v-.2h.2V13.3H7.5v-.2h.7v.2Z"/><path d="M9.1,13.8v.3h.1v.3H8.3v-.2c0-.1,0-.2.1-.2h.5c0-.1,0-.1-.1-.1H8.2l.4-.2H9C9,13.6,9.1,13.7,9.1,13.8Zm-.5.4h0Z"/><path d="M9.6,13.7v.4l.2-.4H9.8v-.2h.5v.2h-.2l-.3.7H9.6l-.3-.7H9.2v-.2h.5v.2Z"/><path d="M11.2,13.8v.3h.1v.3h-.9v-.2c0-.1,0-.2.1-.2h.5c0-.1,0-.1-.1-.1h-.5l.4-.2h.4C11.1,13.6,11.2,13.7,11.2,13.8Zm-.5.4h0Z"/><path d="M3.5,15.2v.2H3.4v.2c0,.2.1.2.1.2h0c-.1,0-.2-.1-.2-.3s0-.2.1-.2,0-.1.1-.1Z"/><path d="M4,15.5c0,.2-.1.3-.2.3s-.2-.1-.2-.3.1-.3.2-.3H4Zm-.1,0H3.7v.2h.1C3.9,15.7,3.9,15.6,3.9,15.5Z"/><path d="M4.1,15.2h0V15h.2v.5H4.1v-.5h0Z"/><path d="M4.5,15.2h0V15h.1v.5H4.5v-.5h0Z"/><path d="M5.1,15.6h.1c0,.2-.1.2-.2.2H4.8v-.2c0-.1,0-.2.1-.2s0-.1.1-.1.2.1.2.3H4.9c0,.2.1.2.1.2Zm0-.1v-.2H4.9v.2Z"/><path d="M5.6,15.6h.1c0,.2-.1.2-.2.2H5.3v-.2c0-.1,0-.2.1-.2s0-.1.1-.1.2.1.2.3H5.4c0,.2,0,.2.1.2Zm0-.1v-.2H5.4v.2Z"/><path d="M6.1,15.2h.1a.1.1,0,0,0,.1-.1H6.2v.3H6.1Z"/><path d="M6.8,15.5c0,.2,0,.3-.1.3s-.2-.1-.2-.3,0-.3.2-.3h.1Zm-.1,0H6.6v.2h.1Z"/><path d="M7.3,15.2v.6H7v-.5a.1.1,0,0,1,.1-.1c.1,0,.1,0,.1.1h.1Zm-.2.3v.2h.1v-.2H7.1Z"/><path d="M7.7,15.2h.1a.1.1,0,0,1-.1.1h0Z"/><path d="M7.9,15.1H8v.5H7.9v-.5h0Z"/><path d="M8.5,15.6h.1c0,.2-.1.2-.2.2H8.2v-.2c0-.1,0-.2.1-.2s0-.1.1-.1.2.1.2.3H8.3c0,.2.1.2.1.2Zm0-.1v-.2H8.3v.2Z"/><path d="M8.7,15.2h.1c.1,0,.1,0,.1-.1H8.8v.3H8.7Z"/><path d="M9.3,15.2h.1a.1.1,0,0,1-.1.1h0Z"/><path d="M12.5,6.8a6.1,6.1,0,0,1-6.2,5.7A6.1,6.1,0,0,1,.2,6.4,6.1,6.1,0,0,1,6.3.2,6.1,6.1,0,0,1,12,3.9" fill="none" stroke="#000" stroke-linecap="round" stroke-miterlimit="10" stroke-width="0.33"/></svg>