<svg id="Layer_1" data-name="Layer 1" xmlns="http://www.w3.org/2000/svg" width="57.5" height="51.4" viewBox="0 0 57.5 51.4"><title>logo-64</title><ellipse cx="25.4" cy="25.7" rx="20.6" ry="20.7" fill="none" stroke="#000" stroke-miterlimit="10" stroke-width="2.36"/><ellipse cx="25.4" cy="25.7" rx="16" ry="16" fill="none" stroke="#000" stroke-miterlimit="10" stroke-width="1.18"/><line x1="25.4" y1="41.7" x2="25.4" y2="9.7" fill="none" stroke="#000" stroke-miterlimit="10" stroke-width="1.18"/><line x1="25.4" y1="19.5" x2="35" y2="12.7" fill="none" stroke="#000" stroke-miterlimit="10" stroke-width="1.18"/><line x1="25.4" y1="29.1" x2="39.1" y2="18.1" fill="none" stroke="#000" stroke-miterlimit="10" stroke-width="1.18"/><line x1="25.4" y1="38.7" x2="41.6" y2="25.2" fill="none" stroke="#000" stroke-miterlimit="10" stroke-width="1.18"/><line x1="25.6" y1="19.5" x2="16" y2="12.7" fill="none" stroke="#000" stroke-miterlimit="10" stroke-width="1.18"/><line x1="25.6" y1="29.1" x2="11.9" y2="18.1" fill="none" stroke="#000" stroke-miterlimit="10" stroke-width="1.18"/><line x1="25.6" y1="38.7" x2="9.5" y2="25.2" fill="none" stroke="#000" stroke-miterlimit="10" stroke-width="1.18"/><path d="M55.5,23l-8,1.5a2.4,2.4,0,0,1-2.8-1.9v-.2a2.5,2.5,0,0,1,1.9-2.9l8-1.4A2.4,2.4,0,0,1,57.4,20v.2A2.3,2.3,0,0,1,55.5,23Z"/><path d="M50.5,27.4a25.1,25.1,0,1,1-2-11.5" fill="none" stroke="#000" stroke-linecap="round" stroke-miterlimit="10" stroke-width="1.34"/></svg>