<svg id="Layer_1" data-name="Layer 1" xmlns="http://www.w3.org/2000/svg" width="28.7" height="32" viewBox="0 0 28.7 32"><title>logo-32</title><ellipse cx="12.7" cy="12.8" rx="10.3" ry="10.3" fill="none" stroke="#000" stroke-miterlimit="10" stroke-width="1.18"/><ellipse cx="12.7" cy="12.8" rx="8" ry="8" fill="none" stroke="#000" stroke-miterlimit="10" stroke-width="0.59"/><line x1="12.7" y1="20.9" x2="12.7" y2="4.8" fill="none" stroke="#000" stroke-miterlimit="10" stroke-width="0.59"/><line x1="12.7" y1="9.8" x2="17.5" y2="6.3" fill="none" stroke="#000" stroke-miterlimit="10" stroke-width="0.59"/><line x1="12.7" y1="14.5" x2="19.6" y2="9" fill="none" stroke="#000" stroke-miterlimit="10" stroke-width="0.59"/><line x1="12.7" y1="19.3" x2="20.8" y2="12.6" fill="none" stroke="#000" stroke-miterlimit="10" stroke-width="0.59"/><line x1="12.8" y1="9.8" x2="8" y2="6.3" fill="none" stroke="#000" stroke-miterlimit="10" stroke-width="0.59"/><line x1="12.8" y1="14.5" x2="5.9" y2="9" fill="none" stroke="#000" stroke-miterlimit="10" stroke-width="0.59"/><line x1="12.8" y1="19.3" x2="4.7" y2="12.6" fill="none" stroke="#000" stroke-miterlimit="10" stroke-width="0.59"/><path d="M27.7,11.5l-3.9.8a1.2,1.2,0,0,1-1.4-1h-.1a1.2,1.2,0,0,1,1-1.4l4-.8a1.3,1.3,0,0,1,1.4,1h0A1.2,1.2,0,0,1,27.7,11.5Z"/><path d="M4.9,26.6v-.2h.4v.9H4.9L4.6,27l-.5-.2H3.7l-.2.3a.7.7,0,0,0-.1.5,1.1,1.1,0,0,0,.2.6.6.6,0,0,0,.6.3h.3l.3-.4H4.3v-.4H5.5a1.5,1.5,0,0,1-.1.7c-.2.2-.3.4-.5.5l-.8.2-.8-.2c-.2-.1-.3-.3-.5-.5a1.5,1.5,0,0,1-.1-.7,1.5,1.5,0,0,1,.1-.7l.5-.5H4Z"/><path d="M7.4,27.2v.5H7a.2.2,0,0,0-.2.2c-.1.1-.1.2-.1.4v.2h.4V29H5.8v-.4h.3v-1H5.8v-.4h.8v.5l.3-.4h.5Z"/><path d="M9.5,28.2H8.1a.5.5,0,0,0,.2.4h.3l.4-.2h.4l-.3.4H8l-.3-.4a.8.8,0,0,1-.2-.5,1.7,1.7,0,0,1,.2-.5l.3-.3H9c.2.1.3.2.3.4A.8.8,0,0,1,9.5,28.2Zm-1-.7H8.2v.3h.8l-.2-.3Z"/><path d="M11.6,28.2H10.3c0,.2,0,.3.1.4h.3a.5.5,0,0,0,.4-.2h.5a.8.8,0,0,1-.4.4h-1l-.4-.4a.7.7,0,0,1-.1-.5,1.1,1.1,0,0,1,.1-.5l.4-.3h1l.3.4A.7.7,0,0,1,11.6,28.2Zm-1-.7h-.2a.4.4,0,0,0-.1.3H11a.4.4,0,0,0-.1-.3Z"/><path d="M13.7,27.9v.7H14V29h-.8V27.9c0-.1-.1-.1-.1-.2h-.4v.8h.2V29H11.8v-.4h.3v-1h-.3v-.4h.9v.2c.1-.2.3-.2.5-.2h.4A1.1,1.1,0,0,1,13.7,27.9Z"/><path d="M16.2,26.9V29a.7.7,0,0,1-.8.8H15v-.5h.2c.1,0,.2,0,.2-.1s.1-.1.1-.2V26.9h-.4v-.5h1.4v.5Z"/><path d="M18.3,27.9v.7h.3V29H16.8a.5.5,0,0,1-.2-.4.8.8,0,0,1,.2-.5h.7c.1,0,.2,0,.2.1v-.4h-.3l-.3.2h-.5c.1-.3.4-.4.9-.4h.6A.7.7,0,0,1,18.3,27.9Zm-.9.8.3-.2v-.2h-.6A.3.3,0,0,0,17.4,28.7Z"/><path d="M19.4,27.6l.3.9.3-.9h-.2v-.4h.9v.4h-.2L19.9,29h-.5l-.6-1.4h-.3v-.4h1.1v.4Z"/><path d="M22.6,27.9v.7h.3V29H21a.5.5,0,0,1-.2-.4A.8.8,0,0,1,21,28h1v-.2c0-.1,0-.1-.1-.2h-.2a.5.5,0,0,0-.4.2h-.4c.1-.3.4-.4.8-.4h.7A1.4,1.4,0,0,1,22.6,27.9Zm-1,.8.4-.2v-.2h-.3c-.1,0-.2,0-.2.1h-.1C21.4,28.6,21.5,28.7,21.6,28.7Z"/><path d="M7,30.8V31H6.9c-.1,0-.2.1-.2.4s.1.4.2.4H7V32H6.8q-.3,0-.3-.6a.7.7,0,0,1,.1-.5H7Z"/><path d="M8,31.4q0,.6-.3.6c-.3,0-.4-.2-.4-.6s.1-.6.4-.6h.2c.1.1.1.1.1.2Zm-.2,0v-.3H7.5v.6h.3Z"/><path d="M8.3,30.8h.1v-.7h.4v.3a.1.1,0,1,0-.2,0h0v.3h.2V31H8.6v1H8.4V31H8.3Z"/><path d="M9,30.8h.1v-.4c0-.2,0-.3.1-.3s.1-.1.2-.1h.1v.3c0-.1,0-.1-.1-.1H9.3v.3h.2V31H9.3v1H9.1V31H9Z"/><path d="M10.3,31.6h.2c-.1.3-.2.4-.4.4H9.9c0-.1,0-.1-.1-.1v-.2c0-.1-.1-.2-.1-.3a4.3,4.3,0,0,1,.1-.5h.3c.2,0,.4.2.4.6H10c0,.3,0,.4.1.4Zm-.1-.3V31H10v.3Z"/><path d="M11.2,31.6h.2c0,.3-.1.4-.3.4h-.2c0-.1,0-.1-.1-.1v-.2a.4.4,0,0,1-.1-.3,4.3,4.3,0,0,1,.1-.5h.3c.2,0,.4.2.4.6H11c0,.3,0,.4.1.4S11.2,31.7,11.2,31.6Zm0-.3V31H11v.3Z"/><path d="M12.4,30.8h.5V31h-.3v1h-.2Z"/><path d="M13.8,31.4q0,.6-.3.6c-.3,0-.4-.2-.4-.6s.1-.6.4-.6h.2c.1.1.1.1.1.2Zm-.2,0v-.3a.1.1,0,0,0-.1-.1c-.1,0-.1,0-.1.1s-.1.1-.1.3a.4.4,0,0,0,.1.3c0,.1,0,.1.1.1a.1.1,0,0,0,.1-.1Z"/><path d="M14.8,30.8V32h-.2v0h-.1c-.1,0-.2,0-.2-.1a.9.9,0,0,1-.1-.5.7.7,0,0,1,.1-.5h.6Zm-.5.6a.4.4,0,0,0,.1.3c0,.1,0,.1.1.1a.1.1,0,0,0,.1-.1v-.6a.1.1,0,0,0-.1-.1c-.1,0-.1,0-.1.1S14.3,31.2,14.3,31.4Z"/><path d="M15.7,30.8V31h-.3v.2h.1a.1.1,0,0,1,.1.1h0c0,.2,0,.2-.1.3s-.1.1-.2.1h-.2v-.2c0,.1.1.1.2.1s.1,0,.1-.1h0c0-.1,0-.1-.1-.1h0l-.2-.2c0-.1-.1-.1-.1-.2a.3.3,0,0,1,.1-.2h.5Z"/><path d="M16.1,30.5h.2v.3h.1V31h-.1v1h-.2V31h-.2v-.2h.2Z"/><path d="M17.1,31.6h.2c0,.3-.1.4-.3.4h-.2a.1.1,0,0,0-.1-.1c0-.1,0-.2-.1-.2v-.3a.7.7,0,0,1,.1-.5H17q.3,0,.3.6h-.5c0,.3.1.4.2.4S17.1,31.7,17.1,31.6Zm0-.3V31h-.2c0,.1-.1.1-.1.3Z"/><path d="M17.7,30.8h.4V31h-.2v1h-.2Z"/><path d="M18.9,30.8V31h-.3v.2h.1c.1,0,.1,0,.1.1H19c0,.2-.1.2-.1.3h-.5v-.2h.2c.1,0,.1,0,.1-.1h-.1l-.2-.2v-.2c0-.1,0-.2.1-.2h.4Z"/><path d="M25.2,13.7A12.5,12.5,0,1,1,12.8.3,12.6,12.6,0,0,1,24.3,8" fill="none" stroke="#000" stroke-linecap="round" stroke-miterlimit="10" stroke-width="0.67"/></svg>