<svg id="Layer_1" data-name="Layer 1" xmlns="http://www.w3.org/2000/svg" width="27.5" height="21.9" viewBox="0 0 27.5 21.9"><title>logo-32</title><ellipse cx="11.5" cy="10.9" rx="10.3" ry="10.3" fill="none" stroke="#000" stroke-miterlimit="10" stroke-width="1.18"/><ellipse cx="11.5" cy="10.9" rx="8" ry="8" fill="none" stroke="#000" stroke-miterlimit="10" stroke-width="0.59"/><line x1="11.5" y1="18.9" x2="11.5" y2="2.9" fill="none" stroke="#000" stroke-miterlimit="10" stroke-width="0.59"/><line x1="11.5" y1="7.9" x2="16.3" y2="4.4" fill="none" stroke="#000" stroke-miterlimit="10" stroke-width="0.59"/><line x1="11.5" y1="12.6" x2="18.3" y2="7.1" fill="none" stroke="#000" stroke-miterlimit="10" stroke-width="0.59"/><line x1="11.5" y1="17.4" x2="19.6" y2="10.7" fill="none" stroke="#000" stroke-miterlimit="10" stroke-width="0.59"/><line x1="11.6" y1="7.9" x2="6.8" y2="4.4" fill="none" stroke="#000" stroke-miterlimit="10" stroke-width="0.59"/><line x1="11.6" y1="12.6" x2="4.7" y2="7.1" fill="none" stroke="#000" stroke-miterlimit="10" stroke-width="0.59"/><line x1="11.6" y1="17.4" x2="3.5" y2="10.7" fill="none" stroke="#000" stroke-miterlimit="10" stroke-width="0.59"/><path d="M26.5,9.6l-4,.8a1.4,1.4,0,0,1-1.4-1h0a1.2,1.2,0,0,1,1-1.4l4-.8a1.3,1.3,0,0,1,1.4,1h0A1.2,1.2,0,0,1,26.5,9.6Z"/></svg>