<svg xmlns="http://www.w3.org/2000/svg" id="Layer_1" viewBox="0 0 252.8 289.5" width="252.8" height="289.5"><style>.st0,.st1{fill:none;stroke:#fff;stroke-width:10.31;stroke-miterlimit:10}.st1{stroke-width:5.16}.st2{fill:#fff}.st3{fill:none;stroke:#fff;stroke-width:5.83;stroke-linecap:round;stroke-miterlimit:10}</style><ellipse cx="111.9" cy="116.8" class="st0" rx="90" ry="90.3"/><ellipse cx="111.9" cy="116.8" class="st1" rx="69.7" ry="69.9"/><path d="M111.9 186.6V46.9m0 42.9l41.7-29.7m-41.7 71.5l59.8-47.9m-59.8 89.7l70.4-58.5m-69.6-25.1L71 60.1m41.7 71.5L52.8 83.7m59.9 89.7l-70.5-58.5" class="st1"/><path d="M243.2 105.2l-34.7 6.4c-5.7 1.1-11.2-2.6-12.3-8.3v-.1l-.2-.9c-1-5.7 2.8-11.2 8.5-12.3l34.7-6.4c5.6-1.1 11.1 2.6 12.2 8.3v.1l.2.9c1.1 5.7-2.6 11.2-8.4 12.3zM43.4 236.9v-1.8h3.8v8h-3.8c-.5-1.3-1.4-2.4-2.5-3.2-2.1-1.5-4.9-1.6-7.2-.3-1 .6-1.8 1.5-2.3 2.6-.6 1.2-.9 2.5-.9 3.8-.1 2.1.5 4.2 1.8 5.9 1.2 1.4 3 2.2 4.9 2.1 1.2.1 2.4-.3 3.4-1 .9-.7 1.6-1.7 1.9-2.8h-4v-3.9h10.7c.1 2.2-.5 4.4-1.5 6.4-.9 1.8-2.4 3.2-4.2 4-2 1-4.3 1.5-6.6 1.4-2.3.1-4.6-.4-6.7-1.4-1.9-.9-3.4-2.2-4.5-4-1-1.9-1.5-4.1-1.5-6.3-.1-2.1.5-4.3 1.6-6.1 1-1.7 2.5-3.2 4.3-4.1 1.9-1 4-1.5 6.2-1.5 3 0 5.4.7 7.1 2.2zm21.9 4.9v4.8c-1.1 0-2.2.2-3.3.6-.8.3-1.5 1-1.9 1.8-.5 1.1-.8 2.4-.7 3.6v1.6h3.1v3.7H51.4v-3.7h2.9v-8.5h-2.7V242H59v4c.3-1.2 1-2.3 2-3 1.1-.8 2.4-1.2 3.8-1.2h.5zm18.3 9.2H71.8c0 1.1.5 2.1 1.2 2.9.8.7 1.8 1 2.8 1 1.4-.1 2.8-.7 3.7-1.8l3.9 1.2c-.8 1.2-1.9 2.3-3.2 3-1.4.6-3 .9-4.6.9-1.6 0-3.1-.3-4.6-.9-1.3-.6-2.4-1.6-3.1-2.9-.8-1.3-1.2-2.7-1.1-4.2 0-1.5.4-3 1.1-4.4.8-1.3 1.9-2.4 3.2-3.1 1.3-.7 2.7-1.1 4.2-1.1 1.6 0 3.1.4 4.4 1.2 1.3.7 2.2 1.9 2.8 3.2.7 1.6 1.1 3.3 1.1 5zm-8.5-6c-.8-.1-1.6.2-2.2.8-.6.7-1 1.5-1 2.4h6.6c-.1-.9-.5-1.7-1.2-2.3-.6-.6-1.4-.9-2.2-.9zm27.3 6H90.6c0 1.1.5 2.1 1.2 2.9.8.7 1.8 1 2.8 1 1.4-.1 2.8-.7 3.7-1.8l3.9 1.2c-.8 1.2-1.9 2.3-3.2 3-1.4.6-3 .9-4.5.9-1.6 0-3.2-.3-4.7-.9-1.3-.6-2.4-1.6-3.1-2.9-.7-1.3-1.1-2.7-1.1-4.2s.4-3 1.1-4.4c.8-1.3 1.9-2.4 3.2-3.1 1.3-.7 2.7-1.1 4.2-1.1 1.6 0 3.1.4 4.4 1.2 1.3.8 2.3 1.9 2.9 3.2.7 1.6 1 3.3 1 5zm-8.5-6c-.8-.1-1.6.2-2.2.8-.6.7-1 1.5-1 2.4h6.6c-.1-.9-.5-1.7-1.2-2.3-.6-.6-1.4-.9-2.2-.9zm27 2.7v6.5h2.4v3.7h-7.5v-9.8c0-.5-.1-1.1-.3-1.6-.3-.3-.7-.5-1.1-.5-1.1 0-2.1.4-2.9 1.1v7.1h2.4v3.7H104v-3.7h2.4v-8.5H104V242h7.5v1.5c1.3-1.1 2.9-1.7 4.6-1.7 1.4-.1 2.7.5 3.6 1.5.9 1.3 1.3 2.8 1.2 4.4zm21.4-8.8v18.7c0 4.9-2.3 7.3-6.7 7.3-1.2 0-2.4-.1-3.5-.4v-4.2l1.8.3c.9 0 1.6-.2 1.9-.8.5-.7.7-1.6.6-2.5v-18.4H133v-3.8h12.4v3.8h-3.1zm18.6 9.4v5.9h2.6v3.7h-7.6v-1.3c-1.2.9-2.7 1.4-4.3 1.5-1.5.1-3-.4-4.2-1.3-1.1-.9-1.7-2.3-1.6-3.7-.1-1.5.6-2.9 1.8-3.8 1.3-1.1 2.9-1.6 4.6-1.5l1.8.2c.7.2 1.3.5 1.9.8v-1.3c0-.7-.3-1.4-.8-1.9-.6-.6-1.4-.9-2.2-.8-1.1 0-2.2.5-3 1.3l-4-.7c1.2-2.5 3.8-3.8 7.6-3.8s4.6.6 5.7 1.6c1.2 1.4 1.8 3.2 1.7 5.1zm-8.2 6.6c1.2-.1 2.4-.7 3.2-1.6v-1.4c-.9-.6-1.9-1-3-1.1-.6 0-1.2.2-1.7.5-.4.4-.5 1-.5 1.5 0 1.4.6 2.1 2 2.1zm17.5-9.2l2.6 7.2 2.8-7.2h-2V242h8.4v3.7h-2.3l-5.2 12.4h-4.3l-5.3-12.4h-2.3V242h9.6v3.7h-2zm27.9 2.6v5.9h2.5v3.7H193v-1.3c-1.2 1-2.7 1.5-4.3 1.5-1.5.1-3-.4-4.2-1.3-2-2-2-5.3 0-7.4.1 0 .1-.1.2-.1 1.3-1 3-1.6 4.7-1.5l1.8.2 1.8.8v-1.3c.1-.7-.2-1.4-.7-1.9-.6-.6-1.5-.8-2.3-.8-1.1 0-2.1.5-2.9 1.3l-4.1-.7c1.3-2.5 3.8-3.8 7.7-3.8s4.5.6 5.7 1.6c1.2 1.4 1.8 3.2 1.7 5.1zm-8.2 6.6c1.2-.1 2.3-.7 3.1-1.6v-1.4c-.8-.6-1.8-1-2.9-1.1-.6 0-1.2.1-1.7.5-.4.4-.6.9-.6 1.5-.1 1 .6 2 1.7 2.1h.4zM62.2 273.5v1.9c-.2-.3-.6-.4-.9-.4-1.1 0-1.6 1.1-1.6 3.4s.5 3.7 1.5 3.7c.4 0 .7-.2 1-.4v1.8c-.5.2-1 .4-1.5.4-2.1 0-3.1-1.8-3.1-5.3-.1-1.4.1-2.9.7-4.2.5-.9 1.4-1.4 2.4-1.3.5 0 1 .1 1.5.4zm8.8 5.1c0 3.5-1.1 5.3-3.2 5.3s-3.3-1.8-3.3-5.4 1.1-5.4 3.2-5.4c.5 0 1 .1 1.5.3.4.2.8.6 1 1 .3.5.5 1.1.6 1.7.2.8.2 1.7.2 2.5zm-2-.1c0-.9-.1-1.9-.2-2.8-.2-.6-.5-.9-1-.9s-.8.3-1 .9c-.2.9-.3 1.9-.2 2.8-.1.9 0 1.9.2 2.8 0 .6.4 1 1 1s1-.4 1-1c.2-.9.2-1.9.2-2.8zm4.1-5.2h1v-3.7c-.1-.9.1-1.7.5-2.5.4-.5 1.1-.8 1.8-.7l1.3.3v2l-.8-.3c-.3 0-.5.1-.7.3-.1.3-.2.7-.2 1v3.6h1.6v1.5H76v8.9h-1.9v-8.9h-1v-1.5zm6.5 0h1v-3.7c-.1-.9.1-1.7.5-2.5.5-.5 1.1-.8 1.8-.7l1.3.3v2c-.2-.2-.5-.3-.8-.3-.3 0-.5.1-.7.3-.1.3-.2.7-.2 1v3.6h1.6v1.5h-1.6v8.9h-1.9v-8.9h-1v-1.5zm10.9 6.9h1.8c-.2 2.4-1.2 3.7-3 3.7-.5 0-1-.1-1.5-.3-.4-.3-.7-.6-1-1-.2-.5-.4-1.1-.6-1.7-.1-.8-.1-1.6-.1-2.4-.1-1.4.1-2.8.7-4.1.5-.9 1.4-1.4 2.4-1.3 2.1 0 3.1 1.8 3.1 5.5v.3h-4.4c0 2.2.5 3.3 1.4 3.3s1.2-.7 1.2-2zm-.1-2.7c0-.7-.2-1.5-.4-2.2-.1-.3-.4-.6-.8-.6s-.7.2-.9.6c-.2.7-.4 1.5-.4 2.2h2.5zm8.7 2.7h1.8c-.2 2.4-1.2 3.7-3 3.7-.5 0-1-.1-1.5-.3-.4-.3-.7-.6-1-1-.3-.5-.4-1.1-.5-1.7-.2-.8-.3-1.6-.2-2.4-.1-1.4.2-2.8.8-4.1.5-.8 1.3-1.3 2.3-1.3 2.1 0 3.2 1.8 3.2 5.5v.3h-4.4c0 2.2.4 3.3 1.3 3.3s1.2-.7 1.2-2zm-.1-2.7c0-.7-.2-1.5-.4-2.2-.1-.4-.4-.6-.8-.6s-.7.2-.9.6c-.2.7-.3 1.5-.3 2.2H99zm10-4.2h1.9v1.3c.2-.5.6-.9 1-1.2.4-.2.8-.4 1.3-.4v2.1h-.4c-.6 0-1.1.2-1.5.6-.3.6-.4 1.2-.4 1.8v6.3H109v-10.5zm12.7 5.3c0 3.5-1.1 5.3-3.2 5.3s-3.3-1.8-3.3-5.4 1.1-5.4 3.2-5.4c.5 0 1 .1 1.5.3.4.2.8.6 1 1 .3.5.5 1.1.6 1.7.2.8.2 1.7.2 2.5zm-2-.1c0-.9-.1-1.9-.2-2.8-.2-.6-.5-.9-1-.9s-.8.3-1 .9c-.2.9-.3 1.9-.2 2.8-.1.9 0 1.9.2 2.8 0 .6.4 1 1 1s1-.4 1-1c.2-.9.2-1.9.2-2.8zm10.8-5.2v10.4h-1.9v-1.3l-.9 1.2c-.3.2-.6.3-1 .3-.9 0-1.6-.6-1.9-1.4-.5-1.3-.7-2.7-.6-4.1-.1-1.4.1-2.7.6-4 .3-.8 1-1.3 1.9-1.3.8.1 1.6.6 1.9 1.4v-1.2h1.9zm-4.4 5.1c-.1 1 0 2 .3 2.9.2.6.5.8 1 .8s.7-.2.9-.8c.4-1.8.4-3.8 0-5.6-.2-.6-.5-.9-.9-.9-.5 0-.8.3-1 .9-.2.9-.4 1.8-.3 2.7zm11.6-4.9v1.8c-.4-.4-1-.5-1.5-.5h-.4c-.2 0-.3.1-.4.2l-.3.4c-.1.1-.1.3-.1.4 0 .5.5 1.1 1.4 1.8l.9.8.5.7c.3.5.5 1 .4 1.6 0 .8-.3 1.6-.8 2.2-.6.6-1.4.9-2.2.9-.6 0-1.2-.2-1.7-.5v-1.9c.5.4 1 .6 1.6.6.9 0 1.3-.4 1.3-1.3 0-.3 0-.6-.2-.8l-.3-.4-.6-.5c-.7-.4-1.2-1-1.7-1.6-.3-.5-.4-1-.4-1.6-.1-1.5 1.1-2.7 2.6-2.8h.2c.6 0 1.2.2 1.7.5zm3.4-3.1h1.9v2.9h1.1v1.5H143v8.9h-1.9v-8.9h-1v-1.5h1v-2.9zm9.4 9.8h1.8c-.2 2.4-1.2 3.7-3 3.7-.5 0-1-.1-1.5-.3-.4-.3-.7-.6-1-1-.3-.5-.4-1.1-.5-1.7-.2-.8-.3-1.6-.2-2.4-.1-1.4.1-2.8.7-4.1.5-.8 1.4-1.3 2.4-1.3 2.1 0 3.2 1.8 3.2 5.5v.3H148c0 2.2.4 3.3 1.3 3.3s1.2-.7 1.2-2zm-.1-2.7c0-.7-.2-1.5-.4-2.2-.2-.4-.4-.6-.8-.6s-.7.2-.9.6c-.2.7-.3 1.5-.3 2.2h2.4zm4.7-4.2h1.9v1.3c.2-.5.6-.9 1-1.2.4-.2.8-.4 1.3-.4v2.1h-.4c-.6 0-1.1.2-1.5.6-.3.6-.4 1.2-.4 1.8v6.3h-1.9v-10.5zm10.8.2v1.8c-.4-.3-.9-.5-1.4-.5h-.5c-.2 0-.3.1-.4.2l-.3.4c0 .1-.1.3-.1.4s.5 1.1 1.4 1.8l.9.8.5.7c.3.5.5 1 .4 1.6.1.8-.2 1.6-.8 2.2-.5.6-1.3.9-2.1.9-.6 0-1.2-.2-1.7-.5v-1.9c.4.4.9.6 1.5.6.9 0 1.4-.4 1.4-1.3 0-.3-.1-.6-.3-.8l-.3-.4-.6-.5c-.6-.5-1.2-1-1.7-1.6-.3-.5-.4-1-.4-1.6 0-.8.3-1.5.8-2.1.5-.5 1.3-.8 2-.8.6 0 1.2.3 1.7.6z" class="st2"/><path d="M221.2 124c-3.7 56.9-50.9 101.9-108.5 101.9C52.6 225.9 3.9 177 3.9 116.8S52.6 7.7 112.7 7.7c43.7 0 83.1 26.1 100.1 66.4" class="st3"/></svg>