<svg id="Layer_1" data-name="Layer 1" xmlns="http://www.w3.org/2000/svg" width="57.5" height="64" viewBox="0 0 57.5 64"><title>logo-64</title><ellipse cx="25.4" cy="25.7" rx="20.6" ry="20.7" fill="none" stroke="#000" stroke-miterlimit="10" stroke-width="2.36"/><ellipse cx="25.4" cy="25.7" rx="16" ry="16" fill="none" stroke="#000" stroke-miterlimit="10" stroke-width="1.18"/><line x1="25.4" y1="41.7" x2="25.4" y2="9.7" fill="none" stroke="#000" stroke-miterlimit="10" stroke-width="1.18"/><line x1="25.4" y1="19.5" x2="35" y2="12.7" fill="none" stroke="#000" stroke-miterlimit="10" stroke-width="1.18"/><line x1="25.4" y1="29.1" x2="39.1" y2="18.1" fill="none" stroke="#000" stroke-miterlimit="10" stroke-width="1.18"/><line x1="25.4" y1="38.7" x2="41.6" y2="25.2" fill="none" stroke="#000" stroke-miterlimit="10" stroke-width="1.18"/><line x1="25.6" y1="19.5" x2="16" y2="12.7" fill="none" stroke="#000" stroke-miterlimit="10" stroke-width="1.18"/><line x1="25.6" y1="29.1" x2="11.9" y2="18.1" fill="none" stroke="#000" stroke-miterlimit="10" stroke-width="1.18"/><line x1="25.6" y1="38.7" x2="9.5" y2="25.2" fill="none" stroke="#000" stroke-miterlimit="10" stroke-width="1.18"/><path d="M55.5,23l-8,1.5a2.4,2.4,0,0,1-2.8-1.9v-.2a2.5,2.5,0,0,1,1.9-2.9l8-1.4A2.4,2.4,0,0,1,57.4,20v.2A2.3,2.3,0,0,1,55.5,23Z"/><path d="M9.7,53.2v-.4h.9v1.9H9.7a2.2,2.2,0,0,0-.5-.8,1.5,1.5,0,0,0-.9-.2,1.1,1.1,0,0,0-.8.2,1.2,1.2,0,0,0-.5.5,1.5,1.5,0,0,0-.2.9,2.1,2.1,0,0,0,.4,1.4,1.4,1.4,0,0,0,1.1.4,1.1,1.1,0,0,0,.8-.2.9.9,0,0,0,.4-.6H8.6v-.9h2.5a3.7,3.7,0,0,1-.4,1.5,2,2,0,0,1-.9.9,4.1,4.1,0,0,1-1.6.3,3.7,3.7,0,0,1-1.5-.3,1.9,1.9,0,0,1-1-1,2.1,2.1,0,0,1-.4-1.4A2.3,2.3,0,0,1,5.7,54a2.2,2.2,0,0,1,1-.9,2.3,2.3,0,0,1,1.4-.4A2.5,2.5,0,0,1,9.7,53.2Z"/><path d="M14.7,54.4v1l-.7.2a1,1,0,0,0-.5.4,1.9,1.9,0,0,0-.1.8v.4h.7V58H11.6v-.8h.6v-2h-.6v-.8h1.7v.9a1.2,1.2,0,0,1,.5-.7,1.1,1.1,0,0,1,.8-.3C14.7,54.3,14.7,54.3,14.7,54.4Z"/><path d="M18.9,56.5H16.2a.7.7,0,0,0,.3.6.9.9,0,0,0,.6.3,1.4,1.4,0,0,0,.9-.5l.9.3a2.3,2.3,0,0,1-.7.7l-1.1.2L16,57.9l-.7-.6a3.6,3.6,0,0,1-.2-1,3,3,0,0,1,.2-1,1.8,1.8,0,0,1,.8-.7,1.6,1.6,0,0,1,.9-.3,1.5,1.5,0,0,1,1,.3,2.3,2.3,0,0,1,.7.7A4.3,4.3,0,0,1,18.9,56.5ZM17,55.1c-.2,0-.4,0-.5.2l-.3.5h1.6l-.3-.5C17.4,55.1,17.2,55.1,17,55.1Z"/><path d="M23.2,56.5H20.5a3.3,3.3,0,0,0,.3.6.9.9,0,0,0,.7.3,1.5,1.5,0,0,0,.8-.5l.9.3a1.6,1.6,0,0,1-.7.7l-1.1.2-1-.2-.8-.6a3.6,3.6,0,0,1-.2-1,1.7,1.7,0,0,1,.3-1,1.2,1.2,0,0,1,.7-.7,1.6,1.6,0,0,1,.9-.3,1.5,1.5,0,0,1,1,.3,1.8,1.8,0,0,1,.9,1.9Zm-1.9-1.4c-.2,0-.4,0-.5.2a.8.8,0,0,0-.2.5h1.5l-.3-.5C21.7,55.1,21.5,55.1,21.3,55.1Z"/><path d="M27.5,55.7v1.5H28V58H26.3V55.8c0-.2,0-.3-.1-.4H26a1.1,1.1,0,0,0-.7.3v1.6h.6V58H23.6v-.8h.6v-2h-.6v-.8h1.7v.3a2.5,2.5,0,0,1,1.1-.4,1.2,1.2,0,0,1,.8.4A1.5,1.5,0,0,1,27.5,55.7Z"/><path d="M32.4,53.7V58a1.4,1.4,0,0,1-1.6,1.6h-.7v-1h.3a.6.6,0,0,0,.5-.2c.1-.1.1-.3.1-.6V53.7h-.7v-.9h2.8v.9Z"/><path d="M36.6,55.8v1.4h.6V58H35.5v-.2a1.9,1.9,0,0,1-1,.3,1.7,1.7,0,0,1-1-.3,1.1,1.1,0,0,1-.3-.8,1,1,0,0,1,.4-.9,1.4,1.4,0,0,1,1.1-.4h.8v-.2a.8.8,0,0,0-.2-.5l-.5-.2a.9.9,0,0,0-.7.3h-.9a1.8,1.8,0,0,1,1.8-.9,1.7,1.7,0,0,1,1.3.4A1.6,1.6,0,0,1,36.6,55.8Zm-1.8,1.6c.2,0,.4-.2.7-.4v-.3l-.7-.3h-.4c-.1.1-.1.2-.1.4S34.4,57.4,34.8,57.4Z"/><path d="M38.8,55.2l.6,1.7.6-1.7h-.5v-.8h2v.8h-.6l-1.1,2.9h-1l-1.2-2.9H37v-.8h2.2v.8Z"/><path d="M45.2,55.8v1.4h.5V58H44v-.2a1.9,1.9,0,0,1-1,.3,1.2,1.2,0,0,1-.9-.3.9.9,0,0,1-.4-.8,1,1,0,0,1,.4-.9,1.4,1.4,0,0,1,1.1-.4H44v-.2a.8.8,0,0,0-.2-.5l-.5-.2a1.1,1.1,0,0,0-.7.3h-.9a1.8,1.8,0,0,1,1.8-.9,1.7,1.7,0,0,1,1.3.4A1.6,1.6,0,0,1,45.2,55.8Zm-1.9,1.6c.2,0,.4-.2.7-.4v-.3a1.1,1.1,0,0,0-.7-.3h-.4c0,.1-.1.2-.1.4A.5.5,0,0,0,43.3,57.4Z"/><path d="M14,61.6v.5c0-.1-.1-.1-.2-.1s-.3.2-.3.7.1.9.3.9.2,0,.2-.1v.4h-.3c-.5,0-.7-.4-.7-1.2a2.8,2.8,0,0,1,.1-1,.7.7,0,0,1,.6-.3Z"/><path d="M16.1,62.8c0,.8-.3,1.2-.8,1.2s-.7-.4-.7-1.2.2-1.3.7-1.3h.3l.3.2c0,.1.1.3.1.4S16.1,62.6,16.1,62.8Zm-.5,0c0-.3,0-.6-.1-.7a.2.2,0,1,0-.4,0c-.1.1-.1.4-.1.7s0,.5.1.6a.2.2,0,1,0,.4,0C15.6,63.3,15.6,63.1,15.6,62.8Z"/><path d="M16.5,61.6h.3v-.9a.7.7,0,0,1,.1-.5c.1-.2.2-.2.4-.2h.3v.4h-.4v.3h0v.7h.4v.3h-.4V64h-.4V61.9h-.3Z"/><path d="M18,61.6h.2v-.9a.8.8,0,0,1,.2-.5c0-.2.2-.2.4-.2h.3v.4h-.4v.3h0v.7h.4v.3h-.4V64h-.5V61.9H18Z"/><path d="M20.5,63.2h.4c0,.5-.2.8-.7.8h-.3l-.2-.2c-.1-.1-.1-.2-.2-.4v-.5a2.5,2.5,0,0,1,.2-1,.5.5,0,0,1,.5-.3c.5,0,.7.5.7,1.3h-1c0,.5.1.7.3.7S20.5,63.5,20.5,63.2Zm0-.7a4.3,4.3,0,0,0-.1-.5H20a4.3,4.3,0,0,0-.1.5Z"/><path d="M22.5,63.2h.4a.7.7,0,0,1-.7.8h-.3l-.3-.2c0-.1-.1-.2-.1-.4v-.5a2.8,2.8,0,0,1,.1-1,.7.7,0,0,1,.6-.3c.5,0,.7.5.7,1.3h-1c0,.5.1.7.3.7S22.5,63.5,22.5,63.2Zm0-.7a1.1,1.1,0,0,1-.1-.5H22a4.3,4.3,0,0,0-.1.5Z"/><path d="M24.8,61.6h.4v.3l.2-.3h.3V62h-.4c-.1.1-.1.2-.1.4V64h-.4Z"/><path d="M27.7,62.8c0,.8-.3,1.2-.8,1.2s-.7-.4-.7-1.2.2-1.3.7-1.3h.4c0,.1.1.1.2.2s.1.3.1.4A1.3,1.3,0,0,1,27.7,62.8Zm-.5,0c0-.3,0-.6-.1-.7a.2.2,0,1,0-.4,0,5.6,5.6,0,0,0-.1.7,3.5,3.5,0,0,0,.1.6.2.2,0,0,0,.4,0C27.2,63.3,27.2,63.1,27.2,62.8Z"/><path d="M29.7,61.6V64h-.5v-.3a.2.2,0,0,1-.2.2c0,.1-.1.1-.2.1s-.3-.1-.4-.3a2.2,2.2,0,0,1-.2-1,2,2,0,0,1,.2-.9c.1-.2.2-.3.4-.3s.3.1.4.3v-.2Zm-1,1.2v.6l.3.2c.1,0,.1-.1.2-.2V62.1c-.1-.1-.1-.2-.2-.2l-.3.2Z"/><path d="M31.3,61.6V62h-.4a7237558718782.9,7237558718782.9,0,0,1-.2.2h0l.3.4.2.2h.2v.4a.7.7,0,0,1-.1.5l-.5.2h-.4v-.4h.3a.3.3,0,0,0,.3-.3v-.2a.1.1,0,0,1-.1-.1h-.1l-.4-.4a.4.4,0,0,1-.1-.3.8.8,0,0,1,.2-.5.5.5,0,0,1,.4-.2Z"/><path d="M32.1,60.9h.4v.7h.3v.3h-.3V64h-.4V61.9h-.2v-.3h.2Z"/><path d="M34.3,63.2h.4c-.1.5-.3.8-.7.8h-.4l-.2-.2c0-.1-.1-.2-.1-.4a4.3,4.3,0,0,1-.1-.5,2.5,2.5,0,0,1,.2-1,.6.6,0,0,1,.6-.3c.4,0,.7.5.7,1.3h-1c0,.5.1.7.3.7S34.3,63.5,34.3,63.2Zm-.1-.7a.7.7,0,0,0-.1-.5h-.3a.7.7,0,0,0-.1.5Z"/><path d="M35.3,61.6h.5v.3c0-.2.1-.2.2-.3h.3V62h-.5V64h-.5Z"/><path d="M37.8,61.6V62h-.5c-.1,0-.1,0-.1.1h0l.3.4.2.2h.1c.1.1.1.2.1.4a.8.8,0,0,1-.2.5l-.5.2h-.4v-.4h.4a.3.3,0,0,0,.3-.3v-.2h-.2a.5.5,0,0,1-.3-.4.4.4,0,0,1-.1-.3.7.7,0,0,1,.1-.5l.5-.2Z"/><path d="M50.5,27.4a25.1,25.1,0,1,1-2-11.5" fill="none" stroke="#000" stroke-linecap="round" stroke-miterlimit="10" stroke-width="1.34"/></svg>