<svg id="Layer_1" data-name="Layer 1" xmlns="http://www.w3.org/2000/svg" width="14.2" height="10.8" viewBox="0 0 14.2 10.8"><title>logo-16</title><ellipse cx="6.3" cy="5.4" rx="5.1" ry="5.1" fill="none" stroke="#000" stroke-miterlimit="10" stroke-width="0.58"/><ellipse cx="6.3" cy="5.4" rx="3.9" ry="4" fill="none" stroke="#000" stroke-miterlimit="10" stroke-width="0.29"/><line x1="6.3" y1="9.4" x2="6.3" y2="1.4" fill="none" stroke="#000" stroke-miterlimit="10" stroke-width="0.29"/><line x1="6.3" y1="3.9" x2="8.6" y2="2.2" fill="none" stroke="#000" stroke-miterlimit="10" stroke-width="0.29"/><line x1="6.3" y1="6.3" x2="9.7" y2="3.5" fill="none" stroke="#000" stroke-miterlimit="10" stroke-width="0.29"/><line x1="6.3" y1="8.6" x2="10.3" y2="5.3" fill="none" stroke="#000" stroke-miterlimit="10" stroke-width="0.29"/><line x1="6.3" y1="3.9" x2="4" y2="2.2" fill="none" stroke="#000" stroke-miterlimit="10" stroke-width="0.29"/><line x1="6.3" y1="6.3" x2="2.9" y2="3.5" fill="none" stroke="#000" stroke-miterlimit="10" stroke-width="0.29"/><line x1="6.3" y1="8.6" x2="2.3" y2="5.3" fill="none" stroke="#000" stroke-miterlimit="10" stroke-width="0.29"/><path d="M13.7,4.8l-2,.3a.5.5,0,0,1-.6-.5H11a.8.8,0,0,1,.5-.7l2-.4a.8.8,0,0,1,.7.5h0C14.3,4.4,14,4.7,13.7,4.8Z"/></svg>